<?xml version="1.0" standalone="no"?><!DOCTYPE svg PUBLIC "-//W3C//DTD SVG 1.1//EN" "http://www.w3.org/Graphics/SVG/1.1/DTD/svg11.dtd"><svg t="1705467805521" class="icon" viewBox="0 0 1024 1024" version="1.1" xmlns="http://www.w3.org/2000/svg" p-id="5115" xmlns:xlink="http://www.w3.org/1999/xlink" width="200" height="200"><path d="M954.7264 530.8416c26.2144 49.92 23.808 109.1584-6.5536 162.5088-35.84 62.8224-87.808 99.0208-154.368 107.52a24.2176 24.2176 0 0 1-6.144-47.9744c52.224-6.656 89.8048-33.2288 118.4768-83.456 22.3744-39.3216 24.4736-80.5376 5.7344-116.0704-17.408-33.0752-50.944-56.3712-85.6064-59.392-40.8576-3.4304-62.464-22.8352-72.2944-64.768-10.496-44.6464-32.3584-72.3968-67.0208-84.736-20.224-7.168-43.2128-6.8096-72.192 1.3312-26.368 7.424-57.088 10.5472-83.968-22.8352-18.688-23.1936-35.84-39.0144-53.9648-49.7152-51.6608-30.6176-108.032-26.0096-154.624 12.4416-43.8272 36.1472-63.8976 80.7936-61.2864 136.448 2.304 48.64-10.6496 61.0304-53.6064 76.032-31.744 11.1104-58.8288 29.696-82.6368 56.832-44.9536 51.2-22.8352 118.528 9.8816 160.5632 21.504 27.648 50.432 39.5264 92.4672 37.1712 14.9504-1.3824 24.832 9.472 25.5488 22.784a24.1664 24.1664 0 0 1-22.784 25.4976 222.0544 222.0544 0 0 1-12.4928 0.3584c-51.3536 0-91.9552-18.8416-120.9344-56.1664-47.4624-61.0304-68.4032-153.3952-8.0384-222.1056 29.44-33.5872 63.1808-56.6784 103.0656-70.656 5.12-1.792 18.7392-6.5536 21.4016-9.0112-0.0512-0.512 0.512-5.1712-0.1536-19.0464-3.328-70.8608 23.1424-130.0992 78.7968-176.0256 62.2592-51.4048 140.7488-57.7536 209.9712-16.7936 23.296 13.7728 44.5952 33.1776 67.072 61.0304 8.192 10.2912 13.4144 12.288 33.2288 6.656 39.168-10.9568 71.424-11.0592 101.5296-0.3072 49.92 17.7664 83.7632 58.9824 97.792 119.1936 5.3248 22.6816 10.752 26.112 29.3888 27.648 51.4048 4.4032 99.0208 37.0176 124.3136 85.0432z m-330.496 137.0112a24.2176 24.2176 0 0 1 33.9456 34.4576l-122.3168 120.1152v0.0512l-0.1536 0.1536c-0.5632 0.512-1.3312 0.768-1.9456 1.2288a23.8592 23.8592 0 0 1-5.8368 3.84 24.1664 24.1664 0 0 1-9.216 1.8432 24.1664 24.1664 0 0 1-8.8576-1.792c-1.1776-0.512-2.1504-1.28-3.2256-1.9456-1.3312-0.768-2.7136-1.28-3.8912-2.304l-135.0656-119.2448a24.2176 24.2176 0 0 1 32.0512-36.2496l94.8224 83.7632V473.9584a24.1664 24.1664 0 1 1 48.384 0v273.7664l81.3056-79.872z" fill="#dbdbdb" p-id="5116"></path></svg>