<?xml version="1.0" standalone="no"?><!DOCTYPE svg PUBLIC "-//W3C//DTD SVG 1.1//EN" "http://www.w3.org/Graphics/SVG/1.1/DTD/svg11.dtd"><svg t="1705416555921" class="icon" viewBox="0 0 1024 1024" version="1.1" xmlns="http://www.w3.org/2000/svg" p-id="15978" xmlns:xlink="http://www.w3.org/1999/xlink" width="200" height="200"><path d="M873.152 191.584c0-30.72-24.896-55.584-55.584-55.584H191.584c-30.72 0-55.584 24.896-55.584 55.584v668.992c0 30.72 24.896 55.584 55.584 55.584H685.12l188-188V191.584z m68.288 581.44l-211.424 211.424a40 40 0 0 1-28.288 11.712H191.584a135.584 135.584 0 0 1-135.584-135.584V191.584A135.584 135.584 0 0 1 191.584 56h625.984a135.584 135.584 0 0 1 135.584 135.584v553.152c0 10.592-4.224 20.8-11.712 28.288z" fill="#dbdbdb" p-id="15979"></path><path d="M726.176 910.752a40 40 0 1 1-80 0v-181.568c0-22.08 17.92-40 40-40h181.568a40 40 0 1 1 0 80h-141.568v141.568z" fill="#dbdbdb" p-id="15980"></path><path d="M661.728 666.496c-2.944 16.48-8.512 27.936-16.768 34.368-8.256 6.4-18.4 9.6-30.496 9.6a40.96 40.96 0 0 1-24.192-8.224c-7.68-5.504-13.536-15.04-17.6-28.576l-68.128-241.28-69.248 246.752c-6.208 21.632-19.968 32.064-41.216 31.36-5.472 0-10.784-0.768-15.936-2.24a35.52 35.52 0 0 1-14.272-8.224c-4.416-4.032-8.32-9.6-11.84-16.768a100.8 100.8 0 0 1-7.936-27.744l-47.808-306.112a29.408 29.408 0 0 1 4.928-22.784c4.768-6.784 13.568-10.176 26.368-10.176a48 48 0 0 1 21.184 4.384c6.048 2.944 9.984 11.008 11.808 24.192l33.504 225.856c1.856 12.48 3.84 18.496 6.08 18.144 2.176-0.384 4.736-6.4 7.68-18.144l58.24-224.768c2.56-9.504 7.36-16.832 14.304-21.984 6.944-5.12 14.656-7.68 23.04-7.68 9.568 0 17.344 2.112 23.36 6.304 6.08 4.224 10.912 12.736 14.592 25.568 10.624 37.76 21.152 74.72 31.584 111.008 10.464 36.256 20.992 73.28 31.616 111.008 3.296 11.36 5.76 17.6 7.424 18.688 1.632 1.088 3.392-5.12 5.216-18.688l32.416-222.56c1.824-12.48 5.408-20.8 10.72-25.024 5.312-4.192 12.896-6.304 22.816-6.304 12.448 0 20.96 3.008 25.536 9.056 4.576 6.08 6.144 13.12 4.672 21.152l-51.648 319.84z" fill="#dbdbdb" p-id="15981"></path></svg>